# xmcd
#
# Track frame offsets:
#	150
#	13978
#	31101
#	38526
#	52920
#	60288
#	71265
#	74160
#
# Disc length: 1106
#
# Revision: 1
# Processed by: cddbd v1.5.1PL0 Copyright (c) Steve Scherf et al.
# Submitted via: CDex 1.50
# Normalized: r0:TDELIM( - )
#
DISCID=61045008
DTITLE=Scott Reeves - Creative Jazz Improv disc #2
DYEAR=1900
DGENRE=Jazz
TTITLE0=Sonny Rollins - Blue Seven
TTITLE1=Sonny Rollins - Blue Seven - Half Speed
TTITLE2=Woody Shaw - Child's Dance
TTITLE3=Woody Shaw - Child's Dance - Half Speed
TTITLE4=Chick Corea - Matrix
TTITLE5=Chick Corea - Matrix - Half Speed
TTITLE6=Miles Davis - Petits Machines
TTITLE7=Miles Davis - Petits Machines - Half Speed
EXTD=
EXTT0=
EXTT1=
EXTT2=
EXTT3=
EXTT4=
EXTT5=
EXTT6=
EXTT7=
PLAYORDER=
